<?xml version="1.0" encoding="utf-8"?>
<!-- Generator: Adobe Illustrator 28.0.0, SVG Export Plug-In . SVG Version: 6.00 Build 0)  -->
<svg version="1.1" xmlns="http://www.w3.org/2000/svg" xmlns:xlink="http://www.w3.org/1999/xlink" x="0px" y="0px"
	 viewBox="0 0 595.28 841.89" style="enable-background:new 0 0 595.28 841.89;" xml:space="preserve">
<style type="text/css">
	.st0{fill:#FFFFFF;stroke:#35D4FF;stroke-width:9;stroke-miterlimit:10;}
	.st1{fill:#FFFFFF;stroke:#000000;stroke-width:3;stroke-miterlimit:10;}
	.st2{fill:#35D4FF;}
</style>
<g id="Layer_1">
	
		<ellipse transform="matrix(0.7071 -0.7071 0.7071 0.7071 -95.7405 257.6977)" class="st0" cx="263.2" cy="244.42" rx="141.82" ry="141.82"/>
	<path class="st1" d="M135.58,183.98"/>
	<path class="st2" d="M140.02,315.77l77.45-86.69l41.41,81.82l65.66-147.47l61.83,156.69C386.37,320.12,272.67,469.12,140.02,315.77
		z"/>
	<path class="st2" d="M191.5,158.84l12.37,7.01l-3.26,14.27l7.57-11.78l23.21-5.3l-0.33,19.83c0,0-0.91,3.98,1.41,4.51
		c2.32,0.53,7.26-16.5,6.87-19.38c-0.39-2.88-0.96-6.5-0.96-6.5l15.41-1.72c0,0,11.35-2.3,9.12-6.3c-2.23-4-25.39-1.95-25.39-1.95
		s-1.08-12.12-8.09-19.65s-5.44-3.69-5.44-3.69l4.33,24.38l-22.26,6.79L191.5,158.84z"/>
	<g>
		<path d="M284.28,290.04h11.47v16.47c0,1.29,0.13,2.18,0.4,2.68c0.27,0.5,0.75,0.75,1.44,0.75c1.29,0,1.93-1.14,1.93-3.44v-16.47
			h11.47v16.47c0,1.29,0.14,2.18,0.41,2.68c0.28,0.5,0.76,0.75,1.46,0.75c1.27,0,1.9-1.14,1.9-3.44v-16.47h11.47v18.83
			c0,3.44-1.16,6.35-3.47,8.76c-2.31,2.4-5.11,3.6-8.4,3.6c-3.39,0-6.44-1.43-9.14-4.29c-2.99,2.86-5.99,4.29-9.02,4.29
			c-3.82,0-6.89-1.39-9.2-4.17c-1.82-2.19-2.73-5.35-2.73-9.48V290.04z"/>
		<path d="M348.38,289.61h11.47v6.72c0,1.92-0.28,3.47-0.84,4.65s-1.53,2.21-2.9,3.11c1.39,0.94,2.36,1.97,2.91,3.1
			c0.55,1.12,0.83,2.6,0.83,4.42v8.59h-11.47v-9.23c0-2.11-0.74-3.16-2.21-3.16c-1.43,0-2.15,0.91-2.15,2.73v9.66h-11.47v-8.16
			c0-1.88,0.34-3.41,1.03-4.6c0.68-1.19,1.88-2.3,3.57-3.34c-1.7-1.1-2.89-2.27-3.57-3.5c-0.69-1.23-1.03-2.79-1.03-4.69v-6.29
			h11.47v7.73c0,0.8,0.2,1.45,0.61,1.96c0.41,0.51,0.93,0.77,1.56,0.77c1.45,0,2.18-0.91,2.18-2.73V289.61z"/>
	</g>
</g>
<g id="Layer_2">
</g>
<g id="Layer_2_copy">
</g>
</svg>
